inDegrees=yes
name=ik_S50_A06_T01
DataType=double
version=3
OpenSimVersion=4.3-2021-08-27-4bc7ad9
endheader
time	pelvis_tilt	pelvis_list	pelvis_rotation	pelvis_tx	pelvis_ty	pelvis_tz	hip_flexion_r	hip_adduction_r	hip_rotation_r	knee_angle_r	knee_angle_r_beta	ankle_angle_r	subtalar_angle_r	mtp_angle_r	hip_flexion_l	hip_adduction_l	hip_rotation_l	knee_angle_l	knee_angle_l_beta	ankle_angle_l	subtalar_angle_l	mtp_angle_l	lumbar_extension	lumbar_bending	lumbar_rotation	arm_flex_r	arm_add_r	arm_rot_r	elbow_flex_r	pro_sup_r	wrist_flex_r	wrist_dev_r	arm_flex_l	arm_add_l	arm_rot_l	elbow_flex_l	pro_sup_l	wrist_flex_l	wrist_dev_l
23.23999999999959	-4.413274647463594	-0.6470506034702431	32.89337017569177	0	0.9399999999999999	0	42.22319235162067	-10.71820364503781	-10.62659489145703	50.11660950096541	0.8746998457281187	0	0	0	42.22319235162067	-10.71820364503781	-10.62659489145703	50.11660950096541	0.8746998457281187	0	0	0	-3.908059323782003	-0.2987369922657183	-0.5079025067015503	10.4476873259326	-6.814357053400141	-3.019810190864645	58.84329347474707	106.2181395137289	0	0	47.04462450864563	-17.80356788320048	-2.49069758994603	50.52977777251601	87.27373609892263	0	0
23.25999999999959	-4.416025494222422	-0.6548770298356328	32.88864000839379	0	0.9399999999999999	0	42.22357942012094	-10.7178612782006	-10.62640202096136	50.11707594364123	0.8747079866885836	0	0	0	42.22357942012094	-10.7178612782006	-10.62640202096136	50.11707594364123	0.8747079866885836	0	0	0	-3.914539702583512	-0.3040223422250663	-0.5028780007289166	10.43397894399771	-6.819806859296369	-3.083273076556958	58.83888571686995	106.2392811271991	0	0	46.98105757551524	-17.69635371299963	-2.646660680329215	50.60311298790088	87.34865318945695	0	0
23.27999999999959	-4.392399968359538	-0.6779726112793254	32.84555159415135	0	0.9399999999999999	0	42.22375068325209	-10.71771034574985	-10.62631688495442	50.11728297764148	0.8747116001135515	0	0	0	42.22375068325209	-10.71771034574985	-10.62631688495442	50.11728297764148	0.8747116001135515	0	0	0	-3.90735138816146	-0.335082157426869	-0.5187147508802938	10.41093420772141	-6.772338304375191	-3.076588851491514	58.83845902506712	106.2488864202049	0	0	46.97190953131714	-17.64848843103889	-2.743249179729776	50.62226918049952	87.34925589003855	0	0
23.29999999999959	-4.375449246602157	-0.684497441904414	32.76199454142649	0	0.9399999999999999	0	42.22409385856217	-10.71740212625649	-10.62614414084093	50.11769060619865	0.8747187145739993	0	0	0	42.22409385856217	-10.71740212625649	-10.62614414084093	50.11769060619865	0.8747187145739993	0	0	0	-3.896976859786329	-0.3471238954246236	-0.5518899324765861	10.36876725801991	-6.754750014019351	-3.040187234773956	58.84584528722064	106.2886349008022	0	0	46.86240080713201	-17.58063376126026	-2.78982304253919	50.62765492741278	87.31043438891955	0	0
23.31999999999959	-4.366848516838624	-0.6696654613790856	32.72660337934965	0	0.9399999999999999	0	42.224786034984	-10.71678026989723	-10.62579561918539	50.11851217821399	0.8747330537107092	0	0	0	42.224786034984	-10.71678026989723	-10.62579561918539	50.11851217821399	0.8747330537107092	0	0	0	-3.881646110509903	-0.3395316156674473	-0.5437124305288942	10.32342439591701	-6.783336301979833	-3.02501727569213	58.82772107632078	106.3234654997745	0	0	46.70096238276289	-17.44475481336453	-2.836769563339874	50.67695667752337	87.43920572104071	0	0
23.33999999999959	-4.351482196939637	-0.6694262553527736	32.67096952092879	0	0.9399999999999999	0	42.227310116307	-10.71551373362093	-10.62483308392303	50.12170980652457	0.8747888628529839	0	0	0	42.227310116307	-10.71551373362093	-10.62483308392303	50.12170980652457	0.8747888628529839	0	0	0	-3.868879569591325	-0.3450929761034949	-0.5574724598180362	10.30820442727807	-6.76832734090536	-3.002616024070895	58.82395739029252	106.359152750186	0	0	46.56953283217138	-17.44219973677296	-2.979010640387677	50.68744267545003	87.60866999804081	0	0
23.35999999999959	-4.342008463823023	-0.6627822699619558	32.6678828035989	0	0.9399999999999999	0	42.22821570682098	-10.71470484195185	-10.62437880964025	50.12278915797603	0.8748077010895979	0	0	0	42.22821570682098	-10.71470484195185	-10.62437880964025	50.12278915797603	0.8748077010895979	0	0	0	-3.857889469995268	-0.3401531443253372	-0.6115794691488904	10.29952988527154	-6.758057144218713	-2.951251004394219	58.81511838657728	106.3635341000536	0	0	46.43796567225397	-17.44594996605622	-3.265747383011784	50.67341328050199	87.85381096504996	0	0
23.37999999999959	-4.338759538243295	-0.6618109287150323	32.65067958250202	0	0.9399999999999999	0	42.22907143095537	-10.71394714293657	-10.62395200778949	50.12381721608175	0.8748256440884447	0	0	0	42.22907143095537	-10.71394714293657	-10.62395200778949	50.12381721608175	0.8748256440884447	0	0	0	-3.855068159507209	-0.3372151679037643	-0.6577522784038293	10.29434306081661	-6.751976508550234	-2.939419698348677	58.79575615554557	106.3665577157204	0	0	46.32061387181008	-17.44403798309093	-3.556535487135957	50.64751838819482	88.12486319339854	0	0
23.39999999999959	-4.343452499613238	-0.6571280000843438	32.63963669456799	0	0.9399999999999999	0	42.22990098000566	-10.71321123736931	-10.62353767974739	50.12481131005004	0.8748429943012654	0	0	0	42.22990098000566	-10.71321123736931	-10.62353767974739	50.12481131005004	0.8748429943012654	0	0	0	-3.856861210023347	-0.3274396622276864	-0.6960370150606107	10.30293225605226	-6.76347730149083	-2.897502455638528	58.79162333694513	106.3493320117946	0	0	46.19394915098583	-17.41369407557284	-3.791957535336639	50.62439598718111	88.30558959091799	0	0
23.41999999999959	-4.34366969965645	-0.6614828283999532	32.58703282250161	0	0.9399999999999999	0	42.2300471705421	-10.71308255292061	-10.62346502867724	50.12498766145981	0.8748460722140063	0	0	0	42.2300471705421	-10.71308255292061	-10.62346502867724	50.12498766145981	0.8748460722140063	0	0	0	-3.859521796058131	-0.3299472791677314	-0.7092457033522027	10.27659940264194	-6.780814850373435	-2.993771952931683	58.79586584176955	106.354191669872	0	0	46.19238058771692	-17.46269037923402	-3.840704708534139	50.61645097816086	88.31233925993594	0	0
23.43999999999959	-4.333858498356853	-0.6521318787377816	32.58629070029093	0	0.9399999999999999	0	42.23080955546621	-10.71240863486871	-10.62308508265143	50.12590358560581	0.8748620581060528	0	0	0	42.23080955546621	-10.71240863486871	-10.62308508265143	50.12590358560581	0.8748620581060528	0	0	0	-3.84662619051403	-0.3235359071777829	-0.754429788662798	10.20562243593963	-6.765317057943262	-3.000628540858783	58.82728611666904	106.4398526632649	0	0	45.69334206828033	-17.32821649239202	-4.271027788432236	50.90098936949698	88.9140049968703	0	0
23.45999999999959	-4.341474102151778	-0.6623310295089639	32.54593533959532	0	0.9399999999999999	0	42.24583402554403	-10.7011845707029	-10.61621396381401	50.14414210303742	0.8751803802859166	0	0	0	42.24583402554403	-10.7011845707029	-10.61621396381401	50.14414210303742	0.8751803802859166	0	0	0	-3.859083336533589	-0.3196499241989882	-0.755797181785729	10.21726576164957	-6.751909021902379	-2.969282946697629	58.89045372270547	106.3582093252978	0	0	45.72520517817889	-17.3727933939252	-4.311190595528444	51.06897458132197	88.90896215965897	0	0
